<svg width="22" height="22" viewBox="0 0 22 22" fill="none" xmlns="http://www.w3.org/2000/svg">
<g opacity="0.7" clip-path="url(#clip0)">
<path d="M15.7143 3.92856H2.35714C1.05533 3.92856 0 4.98389 0 6.2857V19.6428C0 20.9446 1.05533 22 2.35714 22H15.7143C17.0161 22 18.0714 20.9446 18.0714 19.6428V6.2857C18.0714 4.98389 17.0161 3.92856 15.7143 3.92856Z" fill="white"/>
<path d="M19.6429 1.52202e-09H5.50002C4.20525 -4.60364e-05 3.15283 1.04432 3.14288 2.33905C3.14288 2.34536 3.14288 2.35083 3.14288 2.35714H15.7143C17.8829 2.35972 19.6403 4.11708 19.6429 6.2857V18.8571C19.6492 18.8571 19.6547 18.8571 19.661 18.8571C20.9557 18.8472 22.0001 17.7948 22 16.5V2.35714C22 1.05533 20.9447 1.52202e-09 19.6429 1.52202e-09Z" fill="white"/>
</g>
<defs>
<clipPath id="clip0">
<rect width="22" height="22" fill="white"/>
</clipPath>
</defs>
</svg>
