<svg width="18" height="10" viewBox="0 0 18 10" fill="none" xmlns="http://www.w3.org/2000/svg">
<path d="M6.44189 8.0957H3.10303L2.46826 10H0.443359L3.88379 0.757812H5.64844L9.10791 10H7.08301L6.44189 8.0957ZM3.61719 6.55322H5.92773L4.76611 3.09375L3.61719 6.55322ZM9.97119 10V0.757812H12.8149C13.6274 0.757812 14.3532 0.941895 14.9922 1.31006C15.6354 1.67399 16.1369 2.1945 16.4966 2.87158C16.8563 3.54443 17.0361 4.31038 17.0361 5.16943V5.59473C17.0361 6.45378 16.8584 7.21761 16.5029 7.88623C16.1517 8.55485 15.6545 9.07324 15.0112 9.44141C14.368 9.80957 13.6423 9.99577 12.834 10H9.97119ZM11.8755 2.30029V8.47021H12.7959C13.5407 8.47021 14.1099 8.22689 14.5034 7.74023C14.897 7.25358 15.098 6.55745 15.1064 5.65186V5.16309C15.1064 4.22363 14.9118 3.5127 14.5225 3.03027C14.1331 2.54362 13.564 2.30029 12.8149 2.30029H11.8755Z" fill="#2C6DF9"/>
</svg>
