<svg width="23" height="22" viewBox="0 0 23 22" fill="none" xmlns="http://www.w3.org/2000/svg">
<path d="M5.35556 9.40002H5.82223" stroke="#231F20" stroke-width="1.5" stroke-linecap="round" stroke-linejoin="round"/>
<path d="M5.35556 14.3778H5.82223" stroke="#231F20" stroke-width="1.5" stroke-linecap="round" stroke-linejoin="round"/>
<path d="M10.3333 9.40002H10.8" stroke="#231F20" stroke-width="1.5" stroke-linecap="round" stroke-linejoin="round"/>
<path d="M10.3333 14.3778H10.8" stroke="#231F20" stroke-width="1.5" stroke-linecap="round" stroke-linejoin="round"/>
<path d="M15.3889 9.40002H15.7778" stroke="#231F20" stroke-width="1.5" stroke-linecap="round" stroke-linejoin="round"/>
<path d="M17.3333 20.6C19.6529 20.6 21.5333 18.7196 21.5333 16.4C21.5333 14.0804 19.6529 12.2 17.3333 12.2C15.0137 12.2 13.1333 14.0804 13.1333 16.4C13.1333 18.7196 15.0137 20.6 17.3333 20.6Z" stroke="#231F20" stroke-width="1.5" stroke-linecap="round" stroke-linejoin="round"/>
<path d="M13.3667 17.4889H2.55556C1.7 17.4889 1 16.7889 1 15.9333V3.64442C1 2.78887 1.7 2.08887 2.55556 2.08887H18.8889C19.7444 2.08887 20.4444 2.78887 20.4444 3.64442V10.7222" stroke="#231F20" stroke-width="1.5" stroke-linecap="round" stroke-linejoin="round"/>
<path d="M5.35556 1V3.33333" stroke="#231F20" stroke-width="1.5" stroke-linecap="round" stroke-linejoin="round"/>
<path d="M16.5555 1V3.33333" stroke="#231F20" stroke-width="1.5" stroke-linecap="round" stroke-linejoin="round"/>
<path d="M1 6.21108C1.38889 6.1333 18.5 6.21108 18.5 6.21108" stroke="#231F20" stroke-width="1.5" stroke-linecap="round" stroke-linejoin="round"/>
<path d="M17.4889 14.7667V17.9556" stroke="#231F20" stroke-width="1.5" stroke-linecap="round" stroke-linejoin="round"/>
<path d="M15.9333 16.4H18.9667" stroke="#231F20" stroke-width="1.5" stroke-linecap="round" stroke-linejoin="round"/>
</svg>
