<svg width="22" height="22" viewBox="0 0 22 22" fill="none" xmlns="http://www.w3.org/2000/svg">
<g clip-path="url(#clip0)">
<path d="M5.5 0C5.06604 0 4.71426 0.351776 4.71426 0.785729V2.35714H6.28568V0.785729C6.28568 0.351776 5.93391 0 5.5 0Z" fill="#FF6936"/>
<path d="M16.5 0C16.066 0 15.7143 0.351776 15.7143 0.785729V2.35714H17.2857V0.785729C17.2857 0.351776 16.9339 0 16.5 0Z" fill="#FF6936"/>
<path d="M19.6429 2.35715H17.2857V5.50002C17.2857 5.93397 16.9339 6.28575 16.5 6.28575C16.066 6.28575 15.7143 5.93397 15.7143 5.50002V2.35715H6.28569V5.50002C6.28569 5.93397 5.93392 6.28575 5.49997 6.28575C5.06601 6.28575 4.71424 5.93397 4.71424 5.50002V2.35715H2.35714C1.05533 2.35715 0 3.41248 0 4.71429V19.6429C0 20.9447 1.05533 22 2.35714 22H19.6429C20.9447 22 22 20.9447 22 19.6429V4.71429C22 3.41248 20.9447 2.35715 19.6429 2.35715ZM20.4285 19.6429C20.4285 20.0768 20.0768 20.4286 19.6428 20.4286H2.35714C1.92319 20.4286 1.57141 20.0768 1.57141 19.6429V9.42858H20.4285V19.6429Z" fill="#FF6936"/>
<rect x="5" y="13" width="4" height="4" fill="#FF6936"/>
<rect x="12" y="13" width="4" height="4" fill="#FF6936"/>
</g>
<defs>
<clipPath id="clip0">
<rect width="22" height="22" fill="white"/>
</clipPath>
</defs>
</svg>
